# Blender v3.2.1 OBJ File: 'arrow.blend'
# www.blender.org
mtllib Arrow.mtl
o LWMobj
v 0.000000 0.033907 -0.678132
v 0.406879 0.033907 0.000000
v 0.203440 0.033907 0.000000
v 0.271253 0.033907 0.678132
v 0.000000 0.033907 0.542506
v -0.271253 0.033907 0.678132
v -0.203440 0.033907 0.000000
v -0.406879 0.033907 0.000000
v -0.287108 0.101720 -0.067813
v 0.000000 0.101720 -0.546327
v 0.287108 0.101720 -0.067813
v 0.128507 0.101720 -0.067813
v 0.191534 0.101720 0.562455
v 0.000000 0.101720 0.466688
v -0.191534 0.101720 0.562455
v -0.128507 0.101720 -0.067813
vn 0.0000 1.0000 0.0000
vn 0.0000 0.7071 0.7071
vn -0.6063 0.7071 -0.3638
vn 0.6063 0.7071 -0.3638
vn 0.7036 0.7071 -0.0704
vn -0.3162 0.7071 0.6325
vn 0.3162 0.7071 0.6325
vn -0.7036 0.7071 -0.0704
usemtl YELLOW
s off
f 16//1 12//1 10//1
f 12//1 11//1 10//1
f 14//1 13//1 12//1
f 16//1 15//1 14//1
f 16//1 14//1 12//1
f 16//2 9//2 7//2
f 9//3 1//3 8//3
f 1//4 10//4 11//4
f 11//2 3//2 2//2
f 12//5 13//5 3//5
f 13//6 5//6 4//6
f 14//7 15//7 5//7
f 15//8 7//8 6//8
f 16//1 10//1 9//1
f 8//2 7//2 9//2
f 10//3 1//3 9//3
f 2//4 1//4 11//4
f 12//2 3//2 11//2
f 4//5 3//5 13//5
f 14//6 5//6 13//6
f 6//7 5//7 15//7
f 16//8 7//8 15//8
