# This file uses centimeters as units for non-parametric coordinates.

mtllib LowpolyCD.mtl
g default
v -2.594002 -0.474080 -11.378229
v 0.312603 1.204049 -11.378229
v 0.312603 1.204049 -11.242842
v -2.594002 -0.474080 -11.242842
v -5.211250 6.031382 -11.378229
v -5.676842 6.182661 -11.378229
v -5.676842 6.182661 -11.242842
v -5.211250 6.031382 -11.242842
v -12.983166 8.880366 -11.378229
v -11.618050 11.946461 -11.378229
v -6.040646 7.894238 -11.378229
v -6.239765 7.447011 -11.378229
v -6.239765 6.957461 -11.378229
v -6.239765 7.447011 -11.242842
v -6.239765 6.957461 -11.242842
v -11.618050 11.946461 -11.242842
v -12.983166 8.880366 -11.242842
v -6.040646 7.894238 -11.242842
v -4.300419 6.327329 -11.378229
v -4.724380 6.082554 -11.378229
v -4.724380 6.082554 -11.242842
v -4.300419 6.327329 -11.242842
v -9.123863 14.192236 -11.378229
v -9.123863 14.192236 -11.242842
v -6.040646 6.510235 -11.378229
v -6.040646 6.510235 -11.242842
v -3.910885 7.202236 -11.378229
v -4.012669 6.723384 -11.378229
v -4.012669 6.723384 -11.242842
v -3.910885 7.202236 -11.242842
v 2.285362 3.919320 -11.378229
v 2.285362 3.919320 -11.242842
v -4.724380 8.321918 -11.378229
v -4.300419 8.077143 -11.378229
v -4.300419 8.077143 -11.242842
v -4.724380 8.321918 -11.242842
v -5.676838 8.221811 -11.378229
v -5.676838 8.221811 -11.242842
v -5.211250 8.373091 -11.378229
v -5.931873 15.229376 -11.378229
v -2.594002 14.878550 -11.378229
v -2.594002 14.878550 -11.242842
v -5.931873 15.229376 -11.242842
v -5.211250 8.373091 -11.242842
v -4.012669 7.681088 -11.378229
v 2.285362 10.485149 -11.378229
v 2.983170 7.202236 -11.378229
v 2.983170 7.202236 -11.242842
v 2.285362 10.485149 -11.242842
v -4.012669 7.681088 -11.242842
v 0.312603 13.200420 -11.378229
v 0.312603 13.200420 -11.242842
v -12.983166 5.524107 -11.242842
v -12.983166 5.524107 -11.378229
v -5.931873 -0.824904 -11.242842
v -5.931873 -0.824904 -11.378229
v -9.123867 0.212237 -11.242842
v -9.123867 0.212237 -11.378229
v -11.618053 2.458013 -11.242842
v -11.618053 2.458013 -11.378229
vt 0.423731 0.042201
vt 0.309833 0.006700
vt 0.310202 0.001992
vt 0.427422 0.035467
vt 0.619314 0.692883
vt 0.610834 0.705566
vt 0.606776 0.703944
vt 0.616267 0.689745
vt 0.424115 0.522596
vt 0.317138 0.558817
vt 0.288684 0.326522
vt 0.304564 0.321160
vt 0.612013 0.735385
vt 0.621466 0.747350
vt 0.618674 0.750718
vt 0.608096 0.737317
vt 0.568495 0.990374
vt 0.464775 0.935857
vt 0.633791 0.758665
vt 0.647350 0.682537
vt 0.632235 0.684742
vt 0.630719 0.680633
vt 0.647627 0.678170
vt 0.204330 0.549446
vt 0.317693 0.563276
vt 0.203066 0.553778
vt 0.608258 0.720604
vt 0.603889 0.720773
vt 0.673763 0.696427
vt 0.662037 0.686669
vt 0.664067 0.682801
vt 0.677194 0.693716
vt 0.270812 0.248123
vt 0.193168 0.021590
vt 0.287750 0.246058
vt 0.663362 0.437724
vt 0.776219 0.469619
vt 0.304000 0.251089
vt 0.547254 0.454481
vt 0.675437 0.739524
vt 0.681096 0.725344
vt 0.685407 0.726090
vt 0.679077 0.741951
vt 0.191621 0.017188
vt 0.272045 0.325014
vt 0.685406 0.998008
vt 0.650830 0.759779
vt 0.634981 0.754452
vt 0.650209 0.755454
vt 0.257423 0.316873
vt 0.104139 0.495341
vt 0.033890 0.404765
vt 0.247334 0.303524
vt 0.879246 0.875685
vt 0.795326 0.957440
vt 0.666847 0.753869
vt 0.101206 0.498813
vt 0.246556 0.270635
vt 0.027279 0.178615
vt 0.093223 0.082544
vt 0.256215 0.256768
vt 0.866317 0.544619
vt 0.918116 0.649767
vt 0.684743 0.709030
vt 0.664512 0.750176
vt 0.090027 0.079176
vt 0.680508 0.710105
vt 0.029771 0.406764
vt 0.023006 0.176847
vt 0.006453 0.292709
vt 0.243453 0.287123
vt 0.922682 0.766859
vt 0.001842 0.292853
vt 0.392178 0.843874
vt 0.507988 0.446639
vt 0.316896 0.309811
vt 0.448098 0.517170
vt 0.426395 0.526468
vt 0.510514 0.121763
vt 0.316603 0.262265
vt 0.383021 0.614735
vt 0.555996 0.228169
vt 0.323506 0.277612
vt 0.363249 0.730285
vt 0.554777 0.342906
vt 0.323588 0.294421
vt 0.514345 0.119095
vt 0.511642 0.449298
vt 0.560489 0.227277
vt 0.559208 0.343889
vn 0.309017 -0.951057 0.000000
vn 0.669130 -0.743145 0.000000
vn 0.669130 -0.743145 0.000000
vn 0.309017 -0.951057 0.000000
vn 0.104528 0.994522 0.000000
vn 0.500003 0.866024 0.000000
vn 0.500003 0.866024 0.000000
vn 0.104528 0.994522 0.000000
vn 0.000000 0.000000 -1.000000
vn 0.000000 0.000000 -1.000000
vn 0.000000 0.000000 -1.000000
vn 0.000000 0.000000 -1.000000
vn 0.978147 0.207915 0.000000
vn 0.978147 -0.207915 0.000000
vn 0.978147 -0.207915 0.000000
vn 0.978147 0.207915 0.000000
vn 0.000000 0.000000 1.000000
vn 0.000000 0.000000 1.000000
vn 0.000000 0.000000 1.000000
vn 0.000000 0.000000 1.000000
vn -0.669133 0.743142 0.000000
vn -0.309017 0.951057 0.000000
vn -0.309017 0.951057 0.000000
vn -0.669133 0.743142 0.000000
vn -0.500000 0.866026 0.000000
vn -0.809017 0.587786 0.000000
vn -0.809017 0.587786 0.000000
vn -0.500000 0.866026 0.000000
vn 0.809017 0.587785 0.000000
vn 0.978147 0.207915 0.000000
vn 0.978147 0.207915 0.000000
vn 0.809017 0.587785 0.000000
vn -1.000000 0.000000 0.000000
vn -0.913547 0.406733 0.000000
vn -0.913547 0.406733 0.000000
vn -1.000000 0.000000 0.000000
vn 0.000000 0.000000 -1.000000
vn 0.000000 0.000000 -1.000000
vn 0.000000 0.000000 -1.000000
vn 0.000000 0.000000 -1.000000
vn 0.000000 0.000000 1.000000
vn 0.000000 0.000000 1.000000
vn 0.000000 0.000000 1.000000
vn 0.000000 0.000000 1.000000
vn 0.000000 0.000000 -1.000000
vn 0.000000 0.000000 -1.000000
vn 0.000000 0.000000 -1.000000
vn 0.000000 0.000000 -1.000000
vn 0.000000 0.000000 1.000000
vn 0.000000 0.000000 1.000000
vn 0.000000 0.000000 1.000000
vn 0.000000 0.000000 1.000000
vn -0.309017 -0.951057 0.000000
vn -0.669131 -0.743144 0.000000
vn -0.669131 -0.743144 0.000000
vn -0.309017 -0.951057 0.000000
vn 0.669130 -0.743145 0.000000
vn 0.913545 -0.406737 0.000000
vn 0.913545 -0.406737 0.000000
vn 0.669130 -0.743145 0.000000
vn -0.309017 0.951057 0.000000
vn 0.104528 0.994522 0.000000
vn 0.104528 0.994522 0.000000
vn -0.309017 0.951057 0.000000
vn 0.000000 0.000000 -1.000000
vn 0.000000 0.000000 -1.000000
vn 0.000000 0.000000 -1.000000
vn 0.000000 0.000000 -1.000000
vn 0.000000 0.000000 1.000000
vn 0.000000 0.000000 1.000000
vn 0.000000 0.000000 1.000000
vn 0.000000 0.000000 1.000000
vn 0.978147 -0.207915 0.000000
vn 0.809016 -0.587787 0.000000
vn 0.809016 -0.587787 0.000000
vn 0.978147 -0.207915 0.000000
vn 0.500003 0.866024 0.000000
vn 0.809017 0.587785 0.000000
vn 0.809017 0.587785 0.000000
vn 0.500003 0.866024 0.000000
vn 0.809016 -0.587787 0.000000
vn 0.500003 -0.866024 0.000000
vn 0.500003 -0.866024 0.000000
vn 0.809016 -0.587787 0.000000
vn 0.000000 0.000000 -1.000000
vn 0.000000 0.000000 -1.000000
vn 0.000000 0.000000 -1.000000
vn 0.000000 0.000000 -1.000000
vn 0.000000 0.000000 1.000000
vn 0.000000 0.000000 1.000000
vn 0.000000 0.000000 1.000000
vn 0.000000 0.000000 1.000000
vn -0.104529 0.994522 0.000000
vn -0.500000 0.866026 0.000000
vn -0.500000 0.866026 0.000000
vn -0.104529 0.994522 0.000000
vn 0.000000 0.000000 -1.000000
vn 0.000000 0.000000 -1.000000
vn 0.000000 0.000000 -1.000000
vn 0.000000 0.000000 -1.000000
vn 0.000000 0.000000 1.000000
vn 0.000000 0.000000 1.000000
vn 0.000000 0.000000 1.000000
vn 0.000000 0.000000 1.000000
vn 0.500003 -0.866024 0.000000
vn 0.104529 -0.994522 0.000000
vn 0.104529 -0.994522 0.000000
vn 0.500003 -0.866024 0.000000
vn 0.000000 0.000000 -1.000000
vn 0.000000 0.000000 -1.000000
vn 0.000000 0.000000 -1.000000
vn 0.000000 0.000000 -1.000000
vn 0.000000 0.000000 1.000000
vn 0.000000 0.000000 1.000000
vn 0.000000 0.000000 1.000000
vn 0.000000 0.000000 1.000000
vn 0.913545 -0.406737 0.000000
vn 1.000000 0.000000 0.000000
vn 1.000000 0.000000 0.000000
vn 0.913545 -0.406737 0.000000
vn 0.000000 0.000000 -1.000000
vn 0.000000 0.000000 -1.000000
vn 0.000000 0.000000 -1.000000
vn 0.000000 0.000000 -1.000000
vn 0.000000 0.000000 1.000000
vn 0.000000 0.000000 1.000000
vn 0.000000 0.000000 1.000000
vn 0.000000 0.000000 1.000000
vn -0.913546 -0.406735 0.000000
vn -1.000000 0.000000 0.000000
vn -1.000000 0.000000 0.000000
vn -0.913546 -0.406735 0.000000
vn -0.669131 -0.743144 0.000000
vn -0.913546 -0.406735 0.000000
vn -0.913546 -0.406735 0.000000
vn -0.669131 -0.743144 0.000000
vn 0.309017 0.951056 0.000000
vn -0.104529 0.994522 0.000000
vn -0.104529 0.994522 0.000000
vn 0.309017 0.951056 0.000000
vn 1.000000 0.000000 0.000000
vn 0.913545 0.406738 0.000000
vn 0.913545 0.406738 0.000000
vn 1.000000 0.000000 0.000000
vn 0.000000 0.000000 -1.000000
vn 0.000000 0.000000 -1.000000
vn 0.000000 0.000000 -1.000000
vn 0.000000 0.000000 -1.000000
vn 0.000000 0.000000 1.000000
vn 0.000000 0.000000 1.000000
vn 0.000000 0.000000 1.000000
vn 0.000000 0.000000 1.000000
vn 0.669130 0.743145 0.000000
vn 0.309017 0.951056 0.000000
vn 0.309017 0.951056 0.000000
vn 0.669130 0.743145 0.000000
vn -0.913547 0.406733 0.000000
vn -0.669133 0.743142 0.000000
vn -0.669133 0.743142 0.000000
vn -0.913547 0.406733 0.000000
vn 0.913545 0.406738 0.000000
vn 0.669130 0.743145 0.000000
vn 0.669130 0.743145 0.000000
vn 0.913545 0.406738 0.000000
vn 0.000000 0.000000 -1.000000
vn 0.000000 0.000000 -1.000000
vn 0.000000 0.000000 -1.000000
vn 0.000000 0.000000 -1.000000
vn 0.000000 0.000000 1.000000
vn 0.000000 0.000000 1.000000
vn 0.000000 0.000000 1.000000
vn 0.000000 0.000000 1.000000
vn 0.104529 -0.994522 0.000000
vn -0.309017 -0.951057 0.000000
vn -0.309017 -0.951057 0.000000
vn 0.104529 -0.994522 0.000000
vn 0.000000 0.000000 1.000000
vn 0.000000 0.000000 1.000000
vn 0.000000 0.000000 1.000000
vn 0.000000 0.000000 1.000000
vn 0.000000 0.000000 -1.000000
vn 0.000000 0.000000 -1.000000
vn 0.000000 0.000000 -1.000000
vn 0.000000 0.000000 -1.000000
vn 0.000000 0.000000 1.000000
vn 0.000000 0.000000 1.000000
vn 0.000000 0.000000 1.000000
vn 0.000000 0.000000 1.000000
vn -0.809017 0.587786 0.000000
vn -0.978148 0.207912 0.000000
vn -0.978148 0.207912 0.000000
vn -0.809017 0.587786 0.000000
vn 0.000000 0.000000 -1.000000
vn 0.000000 0.000000 -1.000000
vn 0.000000 0.000000 -1.000000
vn 0.000000 0.000000 -1.000000
vn 0.000000 0.000000 1.000000
vn 0.000000 0.000000 1.000000
vn 0.000000 0.000000 1.000000
vn 0.000000 0.000000 1.000000
vn 0.000000 0.000000 -1.000000
vn 0.000000 0.000000 -1.000000
vn 0.000000 0.000000 -1.000000
vn 0.000000 0.000000 -1.000000
vn 0.000000 0.000000 1.000000
vn 0.000000 0.000000 1.000000
vn 0.000000 0.000000 1.000000
vn 0.000000 0.000000 1.000000
vn 0.000000 0.000000 -1.000000
vn 0.000000 0.000000 -1.000000
vn 0.000000 0.000000 -1.000000
vn 0.000000 0.000000 -1.000000
vn 0.000000 0.000000 1.000000
vn 0.000000 0.000000 1.000000
vn 0.000000 0.000000 1.000000
vn 0.000000 0.000000 1.000000
vn 0.000000 0.000000 -1.000000
vn 0.000000 0.000000 -1.000000
vn 0.000000 0.000000 -1.000000
vn 0.000000 0.000000 -1.000000
vn -0.104529 -0.994522 0.000000
vn 0.309017 -0.951057 0.000000
vn 0.309017 -0.951057 0.000000
vn -0.104529 -0.994522 0.000000
vn -0.978148 0.207912 0.000000
vn -0.978148 -0.207911 0.000000
vn -0.978148 -0.207911 0.000000
vn -0.978148 0.207912 0.000000
vn -0.499999 -0.866026 0.000000
vn -0.104529 -0.994522 0.000000
vn -0.104529 -0.994522 0.000000
vn -0.499999 -0.866026 0.000000
vn -0.978148 -0.207911 0.000000
vn -0.809017 -0.587785 0.000000
vn -0.809017 -0.587785 0.000000
vn -0.978148 -0.207911 0.000000
vn -0.809017 -0.587785 0.000000
vn -0.499999 -0.866026 0.000000
vn -0.499999 -0.866026 0.000000
vn -0.809017 -0.587785 0.000000
s off
g CD_Geo:CDGeo
usemtl lambert2SG
f 1/1/1 2/2/2 3/3/3 4/4/4
f 5/5/5 6/6/6 7/7/7 8/8/8
f 9/9/9 10/10/10 11/11/11 12/12/12
f 13/13/13 12/14/14 14/15/15 15/16/16
f 16/17/17 17/18/18 14/15/19 18/19/20
f 19/20/21 20/21/22 21/22/23 22/23/24
f 23/24/25 10/10/26 16/25/27 24/26/28
f 25/27/29 13/13/30 15/16/31 26/28/32
f 27/29/33 28/30/34 29/31/35 30/32/36
f 28/33/37 31/34/38 2/2/39 19/35/40
f 22/23/41 3/36/42 32/37/43 29/31/44
f 2/2/45 1/1/46 20/38/47 19/35/48
f 4/39/49 3/36/50 22/23/51 21/22/52
f 33/40/53 34/41/54 35/42/55 36/43/56
f 2/2/57 31/34/58 32/44/59 3/3/60
f 20/21/61 5/5/62 8/8/63 21/22/64
f 10/10/65 23/24/66 37/45/67 11/11/68
f 24/46/69 16/17/70 18/19/71 38/47/72
f 12/14/73 11/48/74 18/19/75 14/15/76
f 6/6/77 25/27/78 26/28/79 7/7/80
f 11/48/81 37/49/82 38/47/83 18/19/84
f 39/50/85 40/51/86 41/52/87 33/53/88
f 36/43/89 42/54/90 43/55/91 44/56/92
f 40/51/93 23/24/94 24/26/95 43/57/96
f 45/58/97 46/59/98 47/60/99 27/61/100
f 30/32/101 48/62/102 49/63/103 50/64/104
f 37/49/105 39/65/106 44/56/107 38/47/108
f 23/24/109 40/51/110 39/50/111 37/45/112
f 43/55/113 24/46/114 38/47/115 44/56/116
f 31/34/117 47/60/118 48/66/119 32/44/120
f 47/60/121 31/34/122 28/33/123 27/61/124
f 32/37/125 48/62/126 30/32/127 29/31/128
f 45/67/129 27/29/130 30/32/131 50/64/132
f 34/41/133 45/67/134 50/64/135 35/42/136
f 41/52/137 40/51/138 43/57/139 42/68/140
f 47/60/141 46/59/142 49/69/143 48/66/144
f 51/70/145 46/59/146 45/58/147 34/71/148
f 49/63/149 52/72/150 35/42/151 50/64/152
f 51/70/153 41/52/154 42/68/155 52/73/156
f 28/30/157 19/20/158 22/23/159 29/31/160
f 46/59/161 51/70/162 52/73/163 49/69/164
f 41/52/165 51/70/166 34/71/167 33/53/168
f 52/72/169 42/54/170 36/43/171 35/42/172
f 39/65/173 33/40/174 36/43/175 44/56/176
f 17/18/177 53/74/178 15/16/179 14/15/180
f 54/75/181 9/9/182 12/12/183 13/76/184
f 8/8/185 55/77/186 4/39/187 21/22/188
f 10/10/189 9/9/190 17/78/191 16/25/192
f 20/38/193 1/1/194 56/79/195 5/80/196
f 57/81/197 55/77/198 8/8/199 7/7/200
f 56/79/201 58/82/202 6/83/203 5/80/204
f 53/74/205 59/84/206 26/28/207 15/16/208
f 60/85/209 54/75/210 13/76/211 25/86/212
f 26/28/213 59/84/214 57/81/215 7/7/216
f 6/83/217 58/82/218 60/85/219 25/86/220
f 56/79/221 1/1/222 4/4/223 55/87/224
f 9/9/225 54/75/226 53/88/227 17/78/228
f 58/82/229 56/79/230 55/87/231 57/89/232
f 54/75/233 60/85/234 59/90/235 53/88/236
f 60/85/237 58/82/238 57/89/239 59/90/240
