# Blender 3.3.0
# www.blender.org
mtllib Spark.mtl
o Eye
v -0.530763 2.025757 -4.457899
v -0.262539 1.889090 -4.457899
v -0.049675 1.676227 -4.457899
v 0.086992 1.408003 -4.457899
v 0.134084 1.110674 -4.457899
v 0.086992 0.813346 -4.457899
v -0.049675 0.545122 -4.457899
v -0.262539 0.332258 -4.457899
v -0.530763 0.195591 -4.457899
v -0.553396 2.025757 -4.364134
v -0.305589 1.889090 -4.279547
v -0.108929 1.676227 -4.212419
v 0.017335 1.408003 -4.169320
v 0.060843 1.110674 -4.154469
v 0.017335 0.813346 -4.169320
v -0.108929 0.545122 -4.212419
v -0.305589 0.332258 -4.279547
v -0.553396 0.195591 -4.364134
v -0.617848 2.025757 -4.284644
v -0.428185 1.889090 -4.128347
v -0.277668 1.676227 -4.004311
v -0.181030 1.408003 -3.924674
v -0.147731 1.110674 -3.897233
v -0.181030 0.813346 -3.924674
v -0.277668 0.545122 -4.004311
v -0.428185 0.332258 -4.128347
v -0.617848 0.195591 -4.284644
v -0.714309 2.025757 -4.231530
v -0.611664 1.889090 -4.027319
v -0.530205 1.676227 -3.865257
v -0.477904 1.408003 -3.761206
v -0.459883 1.110674 -3.725353
v -0.477904 0.813346 -3.761206
v -0.530205 0.545122 -3.865257
v -0.611664 0.332258 -4.027319
v -0.714309 0.195591 -4.231530
v -0.828091 2.025757 -4.212879
v -0.828091 1.889090 -3.991843
v -0.828091 1.676227 -3.816428
v -0.828091 1.408003 -3.703804
v -0.828092 1.110674 -3.664997
v -0.828091 0.813346 -3.703804
v -0.828091 0.545122 -3.816428
v -0.828091 0.332258 -3.991843
v -0.828091 0.195591 -4.212879
v -0.828091 0.148499 -4.457899
v -0.941874 2.025757 -4.231530
v -1.044519 1.889090 -4.027319
v -1.125978 1.676227 -3.865257
v -1.178278 1.408003 -3.761207
v -1.196300 1.110674 -3.725353
v -1.178278 0.813346 -3.761207
v -1.125978 0.545122 -3.865257
v -1.044519 0.332258 -4.027319
v -0.941874 0.195591 -4.231530
v -0.828091 2.072849 -4.457899
v -1.038334 2.025757 -4.284644
v -1.227997 1.889090 -4.128348
v -1.378514 1.676227 -4.004311
v -1.475152 1.408003 -3.924674
v -1.508452 1.110674 -3.897233
v -1.475152 0.813346 -3.924674
v -1.378514 0.545122 -4.004311
v -1.227997 0.332258 -4.128348
v -1.038334 0.195591 -4.284644
v -1.102787 2.025757 -4.364134
v -1.350593 1.889090 -4.279547
v -1.547254 1.676227 -4.212419
v -1.673517 1.408003 -4.169320
v -1.717025 1.110674 -4.154469
v -1.673517 0.813346 -4.169320
v -1.547254 0.545122 -4.212419
v -1.350593 0.332258 -4.279547
v -1.102787 0.195591 -4.364134
v -1.125420 2.025757 -4.457899
v -1.393643 1.889090 -4.457899
v -1.606507 1.676227 -4.457900
v -1.743174 1.408003 -4.457900
v -1.790266 1.110674 -4.457900
v -1.743174 0.813346 -4.457900
v -1.606507 0.545122 -4.457900
v -1.393643 0.332258 -4.457899
v -1.125420 0.195591 -4.457899
vn 0.3255 -0.9423 0.0786
vn 0.5941 -0.7915 0.1434
vn 0.5478 -0.7900 0.2753
vn 0.3005 -0.9417 0.1511
vn 0.9286 -0.2957 0.2241
vn 0.9721 -0.0000 0.2346
vn 0.8935 -0.0000 0.4491
vn 0.8539 -0.2943 0.4292
vn 0.8002 0.5678 0.1931
vn 0.5941 0.7915 0.1434
vn 0.5478 0.7900 0.2753
vn 0.7367 0.5658 0.3703
vn -0.0000 -0.9922 0.1246
vn 0.8002 -0.5678 0.1931
vn 0.7367 -0.5658 0.3703
vn 0.9286 0.2957 0.2241
vn 0.8539 0.2943 0.4292
vn 0.3255 0.9423 0.0786
vn -0.0000 0.9922 0.1246
vn 0.3005 0.9417 0.1511
vn 0.6114 0.2753 0.7419
vn 0.6360 -0.0000 0.7717
vn 0.2280 0.9335 0.2767
vn 0.4075 0.7678 0.4945
vn 0.4075 -0.7678 0.4945
vn 0.2280 -0.9335 0.2767
vn 0.6114 -0.2753 0.7419
vn 0.5361 0.5380 0.6505
vn 0.5361 -0.5380 0.6505
vn 0.1223 0.9255 0.3584
vn 0.2771 -0.5139 0.8119
vn 0.2146 -0.7473 0.6288
vn 0.3120 0.2596 0.9139
vn 0.3230 -0.0000 0.9464
vn 0.2146 0.7473 0.6288
vn 0.1223 -0.9255 0.3584
vn 0.3120 -0.2596 0.9139
vn 0.2771 0.5139 0.8119
vn -0.0000 0.5048 0.8632
vn -0.0000 0.2538 0.9672
vn -0.0000 0.9223 0.3866
vn -0.0000 -0.5048 0.8632
vn -0.0000 -0.7393 0.6733
vn -0.0000 -0.0000 1.0000
vn -0.0000 0.7393 0.6733
vn -0.0000 -0.9223 0.3866
vn -0.0000 -0.2538 0.9672
vn -0.1223 -0.9255 0.3584
vn -0.3120 -0.2596 0.9139
vn -0.2771 -0.5139 0.8119
vn -0.2771 0.5139 0.8119
vn -0.3120 0.2596 0.9139
vn -0.1223 0.9255 0.3584
vn -0.2146 -0.7473 0.6288
vn -0.3230 -0.0000 0.9464
vn -0.2146 0.7473 0.6288
vn -0.6360 -0.0000 0.7717
vn -0.6114 -0.2753 0.7419
vn -0.4075 0.7678 0.4945
vn -0.5361 0.5380 0.6505
vn -0.2280 -0.9335 0.2767
vn -0.5361 -0.5380 0.6505
vn -0.6114 0.2753 0.7419
vn -0.2280 0.9335 0.2767
vn -0.4075 -0.7678 0.4945
vn -0.3005 0.9417 0.1511
vn -0.5478 0.7900 0.2753
vn -0.5478 -0.7900 0.2753
vn -0.3005 -0.9417 0.1511
vn -0.8935 -0.0000 0.4491
vn -0.8539 -0.2943 0.4292
vn -0.7367 0.5658 0.3703
vn -0.7367 -0.5658 0.3703
vn -0.8539 0.2943 0.4292
vn -0.9286 0.2957 0.2241
vn -0.9721 -0.0000 0.2346
vn -0.3255 0.9423 0.0786
vn -0.5941 0.7915 0.1434
vn -0.5941 -0.7915 0.1434
vn -0.3255 -0.9423 0.0786
vn -0.9286 -0.2957 0.2241
vn -0.8002 0.5678 0.1931
vn -0.8002 -0.5678 0.1931
vt 1.000000 0.900000
vt 1.000000 0.800000
vt 1.000000 0.700000
vt 1.000000 0.600000
vt 1.000000 0.500000
vt 1.000000 0.400000
vt 1.000000 0.300000
vt 1.000000 0.200000
vt 1.000000 0.100000
vt 0.875000 0.900000
vt 0.875000 0.800000
vt 0.875000 0.700000
vt 0.875000 0.600000
vt 0.875000 0.500000
vt 0.875000 0.400000
vt 0.875000 0.300000
vt 0.875000 0.200000
vt 0.875000 0.100000
vt 0.750000 0.900000
vt 0.750000 0.800000
vt 0.750000 0.700000
vt 0.750000 0.600000
vt 0.750000 0.500000
vt 0.750000 0.400000
vt 0.750000 0.300000
vt 0.750000 0.200000
vt 0.750000 0.100000
vt 0.625000 0.900000
vt 0.625000 0.800000
vt 0.625000 0.700000
vt 0.625000 0.600000
vt 0.625000 0.500000
vt 0.625000 0.400000
vt 0.625000 0.300000
vt 0.625000 0.200000
vt 0.625000 0.100000
vt 0.500000 0.900000
vt 0.500000 0.800000
vt 0.500000 0.700000
vt 0.500000 0.600000
vt 0.500000 0.500000
vt 0.500000 0.400000
vt 0.500000 0.300000
vt 0.500000 0.200000
vt 0.500000 0.100000
vt 0.937500 0.000000
vt 0.812500 0.000000
vt 0.687500 0.000000
vt 0.562500 0.000000
vt 0.437500 0.000000
vt 0.312500 0.000000
vt 0.187500 0.000000
vt 0.062500 0.000000
vt 0.375000 0.900000
vt 0.375000 0.800000
vt 0.375000 0.700000
vt 0.375000 0.600000
vt 0.375000 0.500000
vt 0.375000 0.400000
vt 0.375000 0.300000
vt 0.375000 0.200000
vt 0.375000 0.100000
vt 0.937500 1.000000
vt 0.812500 1.000000
vt 0.687500 1.000000
vt 0.562500 1.000000
vt 0.437500 1.000000
vt 0.312500 1.000000
vt 0.187500 1.000000
vt 0.062500 1.000000
vt 0.250000 0.900000
vt 0.250000 0.800000
vt 0.250000 0.700000
vt 0.250000 0.600000
vt 0.250000 0.500000
vt 0.250000 0.400000
vt 0.250000 0.300000
vt 0.250000 0.200000
vt 0.250000 0.100000
vt 0.125000 0.900000
vt 0.125000 0.800000
vt 0.125000 0.700000
vt 0.125000 0.600000
vt 0.125000 0.500000
vt 0.125000 0.400000
vt 0.125000 0.300000
vt 0.125000 0.200000
vt 0.125000 0.100000
vt 0.000000 0.900000
vt 0.000000 0.800000
vt 0.000000 0.700000
vt 0.000000 0.600000
vt 0.000000 0.500000
vt 0.000000 0.400000
vt 0.000000 0.300000
vt 0.000000 0.200000
vt 0.000000 0.100000
s 1
usemtl Material_3
f 9/9/1 8/8/2 17/17/3 18/18/4
f 6/6/5 5/5/6 14/14/7 15/15/8
f 3/3/9 2/2/10 11/11/11 12/12/12
f 46/46/13 9/9/1 18/18/4
f 7/7/14 6/6/5 15/15/8 16/16/15
f 4/4/16 3/3/9 12/12/12 13/13/17
f 1/1/18 56/63/19 10/10/20
f 8/8/2 7/7/14 16/16/15 17/17/3
f 5/5/6 4/4/16 13/13/17 14/14/7
f 2/2/10 1/1/18 10/10/20 11/11/11
f 14/14/7 13/13/17 22/22/21 23/23/22
f 11/11/11 10/10/20 19/19/23 20/20/24
f 18/18/4 17/17/3 26/26/25 27/27/26
f 15/15/8 14/14/7 23/23/22 24/24/27
f 12/12/12 11/11/11 20/20/24 21/21/28
f 46/47/13 18/18/4 27/27/26
f 16/16/15 15/15/8 24/24/27 25/25/29
f 13/13/17 12/12/12 21/21/28 22/22/21
f 10/10/20 56/64/19 19/19/23
f 17/17/3 16/16/15 25/25/29 26/26/25
f 19/19/23 56/65/19 28/28/30
f 26/26/25 25/25/29 34/34/31 35/35/32
f 23/23/22 22/22/21 31/31/33 32/32/34
f 20/20/24 19/19/23 28/28/30 29/29/35
f 27/27/26 26/26/25 35/35/32 36/36/36
f 24/24/27 23/23/22 32/32/34 33/33/37
f 21/21/28 20/20/24 29/29/35 30/30/38
f 46/48/13 27/27/26 36/36/36
f 25/25/29 24/24/27 33/33/37 34/34/31
f 22/22/21 21/21/28 30/30/38 31/31/33
f 31/31/33 30/30/38 39/39/39 40/40/40
f 28/28/30 56/66/19 37/37/41
f 35/35/32 34/34/31 43/43/42 44/44/43
f 32/32/34 31/31/33 40/40/40 41/41/44
f 29/29/35 28/28/30 37/37/41 38/38/45
f 36/36/36 35/35/32 44/44/43 45/45/46
f 33/33/37 32/32/34 41/41/44 42/42/47
f 30/30/38 29/29/35 38/38/45 39/39/39
f 46/49/13 36/36/36 45/45/46
f 34/34/31 33/33/37 42/42/47 43/43/42
f 46/50/13 45/45/46 55/62/48
f 43/43/42 42/42/47 52/59/49 53/60/50
f 40/40/40 39/39/39 49/56/51 50/57/52
f 37/37/41 56/67/19 47/54/53
f 44/44/43 43/43/42 53/60/50 54/61/54
f 41/41/44 40/40/40 50/57/52 51/58/55
f 38/38/45 37/37/41 47/54/53 48/55/56
f 45/45/46 44/44/43 54/61/54 55/62/48
f 42/42/47 41/41/44 51/58/55 52/59/49
f 39/39/39 38/38/45 48/55/56 49/56/51
f 52/59/49 51/58/55 61/75/57 62/76/58
f 49/56/51 48/55/56 58/72/59 59/73/60
f 46/51/13 55/62/48 65/79/61
f 53/60/50 52/59/49 62/76/58 63/77/62
f 50/57/52 49/56/51 59/73/60 60/74/63
f 47/54/53 56/68/19 57/71/64
f 54/61/54 53/60/50 63/77/62 64/78/65
f 51/58/55 50/57/52 60/74/63 61/75/57
f 48/55/56 47/54/53 57/71/64 58/72/59
f 55/62/48 54/61/54 64/78/65 65/79/61
f 58/72/59 57/71/64 66/80/66 67/81/67
f 65/79/61 64/78/65 73/87/68 74/88/69
f 62/76/58 61/75/57 70/84/70 71/85/71
f 59/73/60 58/72/59 67/81/67 68/82/72
f 46/52/13 65/79/61 74/88/69
f 63/77/62 62/76/58 71/85/71 72/86/73
f 60/74/63 59/73/60 68/82/72 69/83/74
f 57/71/64 56/69/19 66/80/66
f 64/78/65 63/77/62 72/86/73 73/87/68
f 61/75/57 60/74/63 69/83/74 70/84/70
f 70/84/70 69/83/74 78/92/75 79/93/76
f 67/81/67 66/80/66 75/89/77 76/90/78
f 74/88/69 73/87/68 82/96/79 83/97/80
f 71/85/71 70/84/70 79/93/76 80/94/81
f 68/82/72 67/81/67 76/90/78 77/91/82
f 46/53/13 74/88/69 83/97/80
f 72/86/73 71/85/71 80/94/81 81/95/83
f 69/83/74 68/82/72 77/91/82 78/92/75
f 66/80/66 56/70/19 75/89/77
f 73/87/68 72/86/73 81/95/83 82/96/79
o Body
v -2.488579 -0.585074 -4.428917
v -2.236042 2.511525 -4.428917
v -2.488579 -0.585074 -4.628917
v -2.236042 2.511525 -4.628917
v 2.042969 -0.271390 -4.428917
v 2.703399 2.203707 -4.428917
v 2.042969 -0.271390 -4.628917
v 2.703399 2.203707 -4.628917
v 0.745000 -0.076574 -4.628917
v 0.697574 -0.641249 -4.628917
v -0.745000 -0.076574 -4.628917
v -0.745000 1.923426 -4.628917
v -0.027766 2.958641 -4.628917
v 0.745000 1.923426 -4.628917
v -0.745000 -0.076574 -4.428917
v 0.697574 -0.641249 -4.428917
v 0.745000 -0.076574 -4.428917
v 0.745000 1.923426 -4.428917
v -0.027766 2.958641 -4.428917
v -0.745000 1.923426 -4.428917
v -1.490000 0.425044 -4.428917
v -3.650731 1.437604 -4.428917
v -1.490000 1.425044 -4.428917
v -1.490000 1.425044 -4.628917
v -3.650731 1.437604 -4.628917
v -1.490000 0.425044 -4.628917
v 1.490000 1.425044 -4.628917
v 3.011430 0.728579 -4.628917
v 1.490000 0.425044 -4.628917
v 1.490000 1.425044 -4.428917
v 3.011430 0.728579 -4.428917
v 1.490000 0.425044 -4.428917
vn -0.8244 -0.5661 -0.0000
vn 0.5401 -0.8416 -0.0000
vn -0.1484 -0.9889 -0.0000
vn 0.3669 0.9303 -0.0000
vn -0.1417 0.9899 -0.0000
vn 0.8014 0.5982 -0.0000
vn -0.8220 0.5695 -0.0000
vn 0.2800 -0.9600 -0.0000
vn -0.3645 -0.9312 -0.0000
vn 0.9965 -0.0837 -0.0000
vn -0.0000 -0.0000 -1.0000
vn -0.0000 -0.0000 1.0000
vn 0.7832 0.6218 -0.0000
vn 0.1957 -0.9807 -0.0000
vn 0.4162 0.9093 -0.0000
vn -0.7112 0.7030 -0.0000
vn -0.4243 -0.9055 -0.0000
vn 0.0058 1.0000 -0.0000
vt 0.125000 0.750000
vt 0.375000 1.000000
vt 0.375000 0.000000
vt 0.625000 0.000000
vt 0.875000 0.750000
vt 0.625000 1.000000
vt 0.125000 0.500000
vt 0.375000 0.250000
vt 0.875000 0.500000
vt 0.625000 0.250000
vt 0.375000 0.750000
vt 0.625000 0.750000
vt 0.375000 0.500000
vt 0.625000 0.500000
vt 0.312500 0.500000
vt 0.375000 0.437500
vt 0.250000 0.500000
vt 0.375000 0.375000
vt 0.187500 0.500000
vt 0.375000 0.312500
vt 0.812500 0.500000
vt 0.625000 0.312500
vt 0.750000 0.500000
vt 0.625000 0.375000
vt 0.687500 0.500000
vt 0.625000 0.437500
vt 0.187500 0.750000
vt 0.375000 0.937500
vt 0.250000 0.750000
vt 0.375000 0.875000
vt 0.312500 0.750000
vt 0.375000 0.812500
vt 0.687500 0.750000
vt 0.625000 0.812500
vt 0.750000 0.750000
vt 0.625000 0.875000
vt 0.812500 0.750000
vt 0.625000 0.937500
vt 0.437702 1.000000
vt 0.437702 0.000000
vt 0.500202 1.000000
vt 0.500202 0.000000
vt 0.562702 1.000000
vt 0.562702 0.000000
vt 0.562702 0.250000
vt 0.500202 0.250000
vt 0.437702 0.250000
vt 0.562702 0.500000
vt 0.500202 0.500000
vt 0.437702 0.500000
vt 0.562702 0.750000
vt 0.500202 0.750000
vt 0.437702 0.750000
s 0
usemtl Material_2
f 106/141/84 85/101/84 87/107/84 107/142/84
f 110/145/85 91/111/85 89/109/85 113/148/85
f 92/112/86 90/110/86 88/108/86 100/128/86
f 95/118/87 87/106/87 85/102/87 103/134/87
f 91/111/88 97/122/88 101/130/88 89/109/88
f 97/122/89 96/120/89 102/132/89 101/130/89
f 96/120/90 95/118/90 103/134/90 102/132/90
f 86/104/91 94/116/91 98/124/91 84/98/91
f 94/116/92 93/114/92 99/126/92 98/124/92
f 93/114/93 92/112/93 100/128/93 99/126/93
f 108/143/94 107/142/94 87/107/94 95/119/94 96/121/94 97/123/94 91/111/94 110/145/94 111/146/94 112/147/94 90/110/94 92/113/94 93/115/94 94/117/94 86/105/94 109/144/94
f 106/140/95 105/138/95 104/136/95 84/99/95 98/125/95 99/127/95 100/129/95 88/108/95 115/150/95 114/149/95 113/148/95 89/109/95 101/131/95 102/133/95 103/135/95 85/103/95
f 90/110/96 112/147/96 115/150/96 88/108/96
f 112/147/97 111/146/97 114/149/97 115/150/97
f 111/146/98 110/145/98 113/148/98 114/149/98
f 84/100/99 104/137/99 109/144/99 86/105/99
f 104/137/100 105/139/100 108/143/100 109/144/100
f 105/139/101 106/141/101 107/142/101 108/143/101
o Eye.001
v 0.865954 1.721392 -4.457899
v 1.080533 1.612059 -4.457899
v 1.250824 1.441768 -4.457899
v 1.360157 1.227188 -4.457899
v 1.397831 0.989326 -4.457899
v 1.360157 0.751463 -4.457899
v 1.250824 0.536884 -4.457899
v 1.080533 0.366593 -4.457899
v 0.865954 0.257259 -4.457899
v 0.847848 1.721392 -4.364134
v 1.046093 1.612059 -4.279547
v 1.203421 1.441768 -4.212419
v 1.304432 1.227188 -4.169320
v 1.339238 0.989326 -4.154469
v 1.304432 0.751463 -4.169320
v 1.203421 0.536884 -4.212419
v 1.046093 0.366593 -4.279547
v 0.847848 0.257259 -4.364134
v 0.796286 1.721392 -4.284644
v 0.948016 1.612059 -4.128347
v 1.068430 1.441768 -4.004311
v 1.145740 1.227188 -3.924674
v 1.172379 0.989326 -3.897233
v 1.145740 0.751463 -3.924674
v 1.068430 0.536884 -4.004311
v 0.948016 0.366593 -4.128347
v 0.796286 0.257259 -4.284644
v 0.719117 1.721392 -4.231530
v 0.801233 1.612059 -4.027319
v 0.866400 1.441768 -3.865257
v 0.908241 1.227188 -3.761206
v 0.922658 0.989326 -3.725353
v 0.908241 0.751463 -3.761206
v 0.866400 0.536884 -3.865257
v 0.801233 0.366593 -4.027319
v 0.719117 0.257259 -4.231530
v 0.628091 1.721392 -4.212879
v 0.628091 1.612059 -3.991843
v 0.628091 1.441768 -3.816428
v 0.628091 1.227188 -3.703804
v 0.628091 0.989326 -3.664997
v 0.628091 0.751463 -3.703804
v 0.628091 0.536884 -3.816428
v 0.628091 0.366593 -3.991843
v 0.628091 0.257259 -4.212879
v 0.628091 0.219586 -4.457899
v 0.537065 1.721392 -4.231530
v 0.454949 1.612059 -4.027319
v 0.389782 1.441768 -3.865257
v 0.347941 1.227188 -3.761207
v 0.333524 0.989326 -3.725353
v 0.347941 0.751463 -3.761207
v 0.389782 0.536884 -3.865257
v 0.454949 0.366593 -4.027319
v 0.537065 0.257259 -4.231530
v 0.628091 1.759066 -4.457899
v 0.459897 1.721392 -4.284644
v 0.308167 1.612059 -4.128348
v 0.187753 1.441768 -4.004311
v 0.110442 1.227188 -3.924674
v 0.083803 0.989326 -3.897233
v 0.110442 0.751463 -3.924674
v 0.187753 0.536884 -4.004311
v 0.308167 0.366593 -4.128348
v 0.459897 0.257259 -4.284644
v 0.408335 1.721392 -4.364134
v 0.210090 1.612059 -4.279547
v 0.052761 1.441768 -4.212419
v -0.048250 1.227188 -4.169320
v -0.083056 0.989326 -4.154469
v -0.048250 0.751463 -4.169320
v 0.052761 0.536884 -4.212419
v 0.210090 0.366593 -4.279547
v 0.408335 0.257259 -4.364134
v 0.390228 1.721392 -4.457899
v 0.175649 1.612059 -4.457899
v 0.005359 1.441768 -4.457900
v -0.103975 1.227188 -4.457900
v -0.141649 0.989326 -4.457900
v -0.103975 0.751463 -4.457900
v 0.005359 0.536884 -4.457900
v 0.175649 0.366593 -4.457899
v 0.390228 0.257259 -4.457899
vn 0.3258 -0.9433 0.0629
vn 0.5963 -0.7945 0.1151
vn 0.5554 -0.8010 0.2233
vn 0.3018 -0.9456 0.1213
vn 0.9371 -0.2984 0.1810
vn 0.9819 -0.0000 0.1896
vn 0.9278 -0.0000 0.3731
vn 0.8837 -0.3046 0.3554
vn 0.8056 0.5717 0.1556
vn 0.5963 0.7945 0.1151
vn 0.5554 0.8010 0.2233
vn 0.7556 0.5803 0.3038
vn -0.0000 -0.9950 0.0999
vn 0.8056 -0.5717 0.1556
vn 0.7556 -0.5803 0.3038
vn 0.9371 0.2984 0.1810
vn 0.8837 0.3046 0.3554
vn 0.3258 0.9433 0.0629
vn -0.0000 0.9950 0.0999
vn 0.3018 0.9456 0.1213
vn 0.6827 0.3075 0.6628
vn 0.7175 -0.0000 0.6965
vn 0.2312 0.9467 0.2245
vn 0.4267 0.8040 0.4142
vn 0.4267 -0.8040 0.4142
vn 0.2312 -0.9467 0.2245
vn 0.6827 -0.3075 0.6628
vn 0.5823 0.5843 0.5653
vn 0.5823 -0.5843 0.5653
vn 0.1253 0.9477 0.2936
vn 0.3173 -0.5884 0.7437
vn 0.2318 -0.8070 0.5432
vn 0.3731 0.3105 0.8743
vn 0.3924 -0.0000 0.9198
vn 0.2318 0.8070 0.5432
vn 0.1253 -0.9477 0.2936
vn 0.3731 -0.3105 0.8743
vn 0.3173 0.5884 0.7437
vn -0.0000 0.5901 0.8073
vn -0.0000 0.3117 0.9502
vn -0.0000 0.9481 0.3179
vn -0.0000 -0.5901 0.8073
vn -0.0000 -0.8082 0.5889
vn -0.0000 -0.0000 1.0000
vn -0.0000 0.8082 0.5889
vn -0.0000 -0.9481 0.3179
vn -0.0000 -0.3117 0.9502
vn -0.1253 -0.9477 0.2936
vn -0.3731 -0.3105 0.8743
vn -0.3173 -0.5884 0.7437
vn -0.3173 0.5884 0.7437
vn -0.3731 0.3105 0.8743
vn -0.1253 0.9477 0.2936
vn -0.2318 -0.8070 0.5432
vn -0.3924 -0.0000 0.9198
vn -0.2318 0.8070 0.5432
vn -0.7175 -0.0000 0.6965
vn -0.6827 -0.3075 0.6628
vn -0.4267 0.8040 0.4142
vn -0.5823 0.5843 0.5653
vn -0.2312 -0.9467 0.2245
vn -0.5823 -0.5843 0.5653
vn -0.6827 0.3075 0.6628
vn -0.2312 0.9467 0.2245
vn -0.4267 -0.8040 0.4142
vn -0.3018 0.9456 0.1213
vn -0.5554 0.8010 0.2233
vn -0.5554 -0.8010 0.2233
vn -0.3018 -0.9456 0.1213
vn -0.9278 -0.0000 0.3731
vn -0.8837 -0.3046 0.3553
vn -0.7556 0.5803 0.3038
vn -0.7556 -0.5803 0.3038
vn -0.8837 0.3046 0.3553
vn -0.9371 0.2984 0.1810
vn -0.9819 -0.0000 0.1896
vn -0.3258 0.9433 0.0629
vn -0.5963 0.7945 0.1151
vn -0.5963 -0.7945 0.1151
vn -0.3258 -0.9433 0.0629
vn -0.9371 -0.2984 0.1810
vn -0.8056 0.5717 0.1556
vn -0.8056 -0.5717 0.1556
vt 1.000000 0.900000
vt 1.000000 0.800000
vt 1.000000 0.700000
vt 1.000000 0.600000
vt 1.000000 0.500000
vt 1.000000 0.400000
vt 1.000000 0.300000
vt 1.000000 0.200000
vt 1.000000 0.100000
vt 0.875000 0.900000
vt 0.875000 0.800000
vt 0.875000 0.700000
vt 0.875000 0.600000
vt 0.875000 0.500000
vt 0.875000 0.400000
vt 0.875000 0.300000
vt 0.875000 0.200000
vt 0.875000 0.100000
vt 0.750000 0.900000
vt 0.750000 0.800000
vt 0.750000 0.700000
vt 0.750000 0.600000
vt 0.750000 0.500000
vt 0.750000 0.400000
vt 0.750000 0.300000
vt 0.750000 0.200000
vt 0.750000 0.100000
vt 0.625000 0.900000
vt 0.625000 0.800000
vt 0.625000 0.700000
vt 0.625000 0.600000
vt 0.625000 0.500000
vt 0.625000 0.400000
vt 0.625000 0.300000
vt 0.625000 0.200000
vt 0.625000 0.100000
vt 0.500000 0.900000
vt 0.500000 0.800000
vt 0.500000 0.700000
vt 0.500000 0.600000
vt 0.500000 0.500000
vt 0.500000 0.400000
vt 0.500000 0.300000
vt 0.500000 0.200000
vt 0.500000 0.100000
vt 0.937500 0.000000
vt 0.812500 0.000000
vt 0.687500 0.000000
vt 0.562500 0.000000
vt 0.437500 0.000000
vt 0.312500 0.000000
vt 0.187500 0.000000
vt 0.062500 0.000000
vt 0.375000 0.900000
vt 0.375000 0.800000
vt 0.375000 0.700000
vt 0.375000 0.600000
vt 0.375000 0.500000
vt 0.375000 0.400000
vt 0.375000 0.300000
vt 0.375000 0.200000
vt 0.375000 0.100000
vt 0.937500 1.000000
vt 0.812500 1.000000
vt 0.687500 1.000000
vt 0.562500 1.000000
vt 0.437500 1.000000
vt 0.312500 1.000000
vt 0.187500 1.000000
vt 0.062500 1.000000
vt 0.250000 0.900000
vt 0.250000 0.800000
vt 0.250000 0.700000
vt 0.250000 0.600000
vt 0.250000 0.500000
vt 0.250000 0.400000
vt 0.250000 0.300000
vt 0.250000 0.200000
vt 0.250000 0.100000
vt 0.125000 0.900000
vt 0.125000 0.800000
vt 0.125000 0.700000
vt 0.125000 0.600000
vt 0.125000 0.500000
vt 0.125000 0.400000
vt 0.125000 0.300000
vt 0.125000 0.200000
vt 0.125000 0.100000
vt 0.000000 0.900000
vt 0.000000 0.800000
vt 0.000000 0.700000
vt 0.000000 0.600000
vt 0.000000 0.500000
vt 0.000000 0.400000
vt 0.000000 0.300000
vt 0.000000 0.200000
vt 0.000000 0.100000
s 1
usemtl Material_4
f 124/159/102 123/158/103 132/167/104 133/168/105
f 121/156/106 120/155/107 129/164/108 130/165/109
f 118/153/110 117/152/111 126/161/112 127/162/113
f 161/196/114 124/159/102 133/168/105
f 122/157/115 121/156/106 130/165/109 131/166/116
f 119/154/117 118/153/110 127/162/113 128/163/118
f 116/151/119 171/213/120 125/160/121
f 123/158/103 122/157/115 131/166/116 132/167/104
f 120/155/107 119/154/117 128/163/118 129/164/108
f 117/152/111 116/151/119 125/160/121 126/161/112
f 129/164/108 128/163/118 137/172/122 138/173/123
f 126/161/112 125/160/121 134/169/124 135/170/125
f 133/168/105 132/167/104 141/176/126 142/177/127
f 130/165/109 129/164/108 138/173/123 139/174/128
f 127/162/113 126/161/112 135/170/125 136/171/129
f 161/197/114 133/168/105 142/177/127
f 131/166/116 130/165/109 139/174/128 140/175/130
f 128/163/118 127/162/113 136/171/129 137/172/122
f 125/160/121 171/214/120 134/169/124
f 132/167/104 131/166/116 140/175/130 141/176/126
f 134/169/124 171/215/120 143/178/131
f 141/176/126 140/175/130 149/184/132 150/185/133
f 138/173/123 137/172/122 146/181/134 147/182/135
f 135/170/125 134/169/124 143/178/131 144/179/136
f 142/177/127 141/176/126 150/185/133 151/186/137
f 139/174/128 138/173/123 147/182/135 148/183/138
f 136/171/129 135/170/125 144/179/136 145/180/139
f 161/198/114 142/177/127 151/186/137
f 140/175/130 139/174/128 148/183/138 149/184/132
f 137/172/122 136/171/129 145/180/139 146/181/134
f 146/181/134 145/180/139 154/189/140 155/190/141
f 143/178/131 171/216/120 152/187/142
f 150/185/133 149/184/132 158/193/143 159/194/144
f 147/182/135 146/181/134 155/190/141 156/191/145
f 144/179/136 143/178/131 152/187/142 153/188/146
f 151/186/137 150/185/133 159/194/144 160/195/147
f 148/183/138 147/182/135 156/191/145 157/192/148
f 145/180/139 144/179/136 153/188/146 154/189/140
f 161/199/114 151/186/137 160/195/147
f 149/184/132 148/183/138 157/192/148 158/193/143
f 161/200/114 160/195/147 170/212/149
f 158/193/143 157/192/148 167/209/150 168/210/151
f 155/190/141 154/189/140 164/206/152 165/207/153
f 152/187/142 171/217/120 162/204/154
f 159/194/144 158/193/143 168/210/151 169/211/155
f 156/191/145 155/190/141 165/207/153 166/208/156
f 153/188/146 152/187/142 162/204/154 163/205/157
f 160/195/147 159/194/144 169/211/155 170/212/149
f 157/192/148 156/191/145 166/208/156 167/209/150
f 154/189/140 153/188/146 163/205/157 164/206/152
f 167/209/150 166/208/156 176/225/158 177/226/159
f 164/206/152 163/205/157 173/222/160 174/223/161
f 161/201/114 170/212/149 180/229/162
f 168/210/151 167/209/150 177/226/159 178/227/163
f 165/207/153 164/206/152 174/223/161 175/224/164
f 162/204/154 171/218/120 172/221/165
f 169/211/155 168/210/151 178/227/163 179/228/166
f 166/208/156 165/207/153 175/224/164 176/225/158
f 163/205/157 162/204/154 172/221/165 173/222/160
f 170/212/149 169/211/155 179/228/166 180/229/162
f 173/222/160 172/221/165 181/230/167 182/231/168
f 180/229/162 179/228/166 188/237/169 189/238/170
f 177/226/159 176/225/158 185/234/171 186/235/172
f 174/223/161 173/222/160 182/231/168 183/232/173
f 161/202/114 180/229/162 189/238/170
f 178/227/163 177/226/159 186/235/172 187/236/174
f 175/224/164 174/223/161 183/232/173 184/233/175
f 172/221/165 171/219/120 181/230/167
f 179/228/166 178/227/163 187/236/174 188/237/169
f 176/225/158 175/224/164 184/233/175 185/234/171
f 185/234/171 184/233/175 193/242/176 194/243/177
f 182/231/168 181/230/167 190/239/178 191/240/179
f 189/238/170 188/237/169 197/246/180 198/247/181
f 186/235/172 185/234/171 194/243/177 195/244/182
f 183/232/173 182/231/168 191/240/179 192/241/183
f 161/203/114 189/238/170 198/247/181
f 187/236/174 186/235/172 195/244/182 196/245/184
f 184/233/175 183/232/173 192/241/183 193/242/176
f 181/230/167 171/220/120 190/239/178
f 188/237/169 187/236/174 196/245/184 197/246/180
