# Blender v2.79 (sub 0) OBJ File: ''
# www.blender.org
mtllib Goobat.mtl
o T_goobot_saucer
v -27.433449 -45.769279 -84.773903
v 27.356007 -45.769279 -84.773903
v 71.681610 -45.769279 -52.569466
v -71.759048 -45.769279 -52.569466
v 88.612480 -45.769279 -0.461597
v -88.689919 -45.769279 -0.461597
v 71.681610 -45.769279 51.646271
v -71.759048 -45.769279 51.646271
v -27.433449 -45.769279 83.850708
v 27.356007 -45.769279 83.850708
v 121.599998 1.200000 -0.660317
v 98.407028 1.200000 -72.040955
v 37.687023 1.200000 -116.156624
v -37.367023 1.200000 -116.156624
v -98.087029 1.200000 -72.040955
v -121.280006 1.200000 -0.660317
v -98.087029 1.200000 70.720322
v -37.367023 1.200000 114.835983
v 37.687023 1.200000 114.835983
v 98.407028 1.200000 70.720322
v 18.301765 21.013134 -12.567656
v 0.684822 28.085768 -0.864918
v 16.927675 21.013134 11.286219
v -6.888270 1.519918 -28.277786
v 25.598946 1.519918 -17.415091
v -4.670170 21.013134 -20.248741
v -28.909733 1.519918 -1.256831
v -20.241686 21.013134 -1.142044
v -6.893484 21.013134 18.347631
v -10.032535 1.519918 26.305735
v 23.655682 1.519918 16.319386
v -28.714540 71.091240 -0.722398
v -28.714540 20.407940 -0.722398
v 25.961027 20.407940 -0.722398
v 25.961027 71.091240 -0.722398
v -28.714540 20.407940 -0.722398
v -28.714540 71.091240 -0.722398
v 25.961027 20.407940 -0.722398
v 0.684822 28.085768 -0.864918
v 16.927675 21.013134 11.286219
v 18.301765 21.013134 -12.567656
v 53.966751 25.243235 0.992963
v 27.373676 25.243235 -45.067596
v 55.507999 1.711360 0.166741
v 27.844000 1.711360 -47.748714
v -27.483999 1.711360 -47.748714
v -25.812475 25.243235 -45.067596
v -55.148003 1.711360 0.166741
v -52.405552 25.243235 0.992963
v -25.812475 25.243235 47.053524
v -27.483999 1.711360 48.082195
v 27.373676 25.243235 47.053524
v 27.844000 1.711360 48.082195
v 35.335239 71.118111 1.992795
v 17.840527 71.118111 -28.308935
v -17.148899 71.118111 -28.308935
v -34.643616 71.118111 1.992795
v -17.148899 71.118111 32.294529
v 17.840527 71.118111 32.294529
v 0.180000 82.931030 0.166741
v 27.373676 25.243235 -45.067596
v 53.966751 25.243235 0.992963
v 55.507999 1.711360 0.166741
v -25.812475 25.243235 -45.067596
v -27.483999 1.711360 -47.748714
v -55.148003 1.711360 0.166741
v 27.373676 25.243235 47.053524
v -25.812475 25.243235 47.053524
v 27.844000 1.711360 48.082195
v -34.643616 71.118111 1.992795
v -17.148899 71.118111 -28.308935
v -52.405552 25.243235 0.992963
v 17.840527 71.118111 -28.308935
v 0.180000 82.931030 0.166741
v 35.335239 71.118111 1.992795
vt 0.645031 0.969076
vt 0.787047 0.969076
vt 0.901941 0.886832
vt 0.530138 0.886832
vt 0.945826 0.753758
vt 0.486252 0.753758
vt 0.901941 0.620685
vt 0.530138 0.620685
vt 0.645031 0.538441
vt 0.787047 0.538441
vt 0.259364 0.473678
vt 0.065161 0.701149
vt 0.259364 0.665062
vt 0.065161 0.438979
vt 0.252821 0.750482
vt 0.064095 0.976837
vt 0.254983 0.945321
vt 0.061133 0.709935
vt 0.259364 0.473678
vt 0.065161 0.438979
vt 0.259364 0.665062
vt 0.065161 0.701149
vt 0.061133 0.709935
vt 0.254983 0.945321
vt 0.252821 0.750482
vt 0.064095 0.976837
vt 0.065161 0.438979
vt 0.259364 0.665062
vt 0.259364 0.473678
vt 0.065161 0.701149
vt 0.061133 0.709935
vt 0.254983 0.945321
vt 0.252821 0.750482
vt 0.064095 0.976837
vt 0.065161 0.438979
vt 0.259364 0.665062
vt 0.259364 0.473678
vt 0.065161 0.701149
vt 0.061133 0.709935
vt 0.254983 0.945321
vt 0.252821 0.750482
vt 0.064095 0.976837
vt 0.259364 0.473678
vt 0.065161 0.701149
vt 0.259364 0.665062
vt 0.065161 0.438979
vt 0.252821 0.750482
vt 0.064095 0.976837
vt 0.254983 0.945321
vt 0.061133 0.709935
vt 0.768279 0.047049
vt 0.887356 0.132866
vt 0.621093 0.047049
vt 0.502017 0.132866
vt 0.932839 0.271721
vt 0.456534 0.271721
vt 0.887356 0.410576
vt 0.502017 0.410576
vt 0.621093 0.496393
vt 0.768279 0.496393
vt 0.320492 0.484185
vt 0.409092 0.513933
vt 0.353616 0.584335
vt 0.410108 0.388369
vt 0.283793 0.471863
vt 0.409811 0.425146
vt 0.535020 0.478399
vt 0.498137 0.488807
vt 0.463406 0.587191
vt 0.485904 0.617535
vt 0.330637 0.613496
vt 0.102558 0.297414
vt 0.102558 0.035775
vt 0.351601 0.035775
vt 0.351601 0.297414
vt 0.102558 0.035775
vt 0.102558 0.297414
vt 0.351601 0.035775
vt 0.409092 0.513933
vt 0.353616 0.584335
vt 0.320492 0.484185
vt 0.460520 0.974970
vt 0.459973 0.640495
vt 0.284236 0.976970
vt 0.459973 0.648970
vt 0.283487 0.651153
vt 0.284236 0.968622
vt 0.284236 0.968622
vt 0.460520 0.966722
vt 0.283487 0.651153
vt 0.459973 0.648970
vt 0.284236 0.968622
vt 0.460520 0.966722
vt 0.283487 0.651153
vt 0.459973 0.648970
vt 0.284236 0.968622
vt 0.459973 0.648970
vt 0.283487 0.651153
vt 0.460520 0.974970
vt 0.459973 0.640495
vt 0.284236 0.976970
vt 0.460520 0.966722
vt 0.459973 0.648970
vt 0.283487 0.651153
vt 0.460520 0.966722
vt 0.283487 0.651153
vt 0.284236 0.968622
vt 0.459973 0.648970
vt 0.245249 0.376233
vt 0.235503 0.393775
vt 0.284524 0.376359
vt 0.255465 0.428665
vt 0.216012 0.393775
vt 0.197347 0.428665
vt 0.168289 0.376359
vt 0.206266 0.376233
vt 0.216012 0.358690
vt 0.197347 0.324053
vt 0.235503 0.358690
vt 0.255465 0.324053
vt 0.225658 0.377297
vt 0.459973 0.648970
vt 0.460520 0.966722
vt 0.284236 0.968622
vt 0.283487 0.642793
vt 0.459973 0.640495
vt 0.284236 0.976970
vt 0.460520 0.966722
vt 0.460520 0.966722
vt 0.284236 0.968622
vt 0.283487 0.651153
vt 0.284236 0.976970
vt 0.283487 0.642793
vt 0.460520 0.966722
vt 0.284236 0.968622
vt 0.284236 0.968622
vt 0.459973 0.648970
vt 0.460520 0.966722
vt 0.283487 0.651153
vt 0.283487 0.651153
vt 0.460520 0.966722
vt 0.284236 0.968622
vt 0.459973 0.648970
vt 0.284524 0.376359
vt 0.255465 0.428665
vt 0.197347 0.428665
vt 0.206266 0.376233
vt 0.216012 0.393775
vt 0.168289 0.376359
vt 0.197347 0.324053
vt 0.255465 0.324053
vt 0.235503 0.393775
vt 0.225658 0.377297
vt 0.245249 0.376233
vn -0.1637 -0.8493 -0.5019
vn 0.1626 -0.8498 -0.5014
vn 0.4264 -0.8499 -0.3097
vn -0.4284 -0.8486 -0.3105
vn 0.5275 -0.8496 0.0004
vn -0.5301 -0.8479 0.0004
vn 0.4272 -0.8489 0.3111
vn -0.4292 -0.8476 0.3120
vn -0.1642 -0.8477 0.5044
vn 0.1631 -0.8482 0.5039
vn 0.9157 0.4019 -0.0005
vn 0.7409 0.4015 -0.5384
vn 0.2833 0.4016 -0.8709
vn -0.2823 0.4024 -0.8709
vn -0.7398 0.4034 -0.5385
vn -0.9146 0.4043 -0.0005
vn -0.7399 0.4047 0.5374
vn -0.2823 0.4046 0.8698
vn 0.2833 0.4039 0.8698
vn 0.7409 0.4028 0.5374
vn 0.6146 0.6695 -0.4172
vn -0.0000 1.0000 0.0000
vn 0.5850 0.6635 0.4664
vn -0.2547 0.3929 -0.8836
vn 0.7558 0.4099 -0.5106
vn -0.2095 0.6623 -0.7194
vn -0.9131 0.4062 -0.0348
vn -0.7435 0.6679 -0.0336
vn -0.2467 0.6660 0.7039
vn -0.3100 0.4017 0.8617
vn 0.7217 0.3957 0.5680
vn 0.0000 0.0000 1.0000
vn 0.0000 0.0000 -1.0000
vn 0.3851 0.9226 0.0222
vn -0.9770 -0.2132 -0.0038
vn -0.4913 -0.2396 0.8374
vn -0.9978 -0.0657 0.0108
vn 0.0000 -0.1240 -0.9923
vn 0.8600 -0.1176 0.4965
vn 0.4818 -0.2490 0.8402
vn 0.8600 -0.1177 0.4965
vn 0.9932 -0.1161 0.0105
vn 0.9803 -0.1689 0.1028
vn 0.8630 -0.0831 -0.4983
vn 0.4103 -0.3122 -0.8568
vn -0.4929 -0.1957 -0.8478
vn -0.5729 -0.0472 -0.8183
vn -0.9265 -0.3761 -0.0072
vn -0.4617 -0.3874 0.7979
vn 0.3186 -0.3778 0.8694
vn 0.3883 -0.8421 0.3743
vn 0.7518 -0.6594 -0.0063
vn 0.9109 -0.3479 -0.2219
vn 0.3751 -0.6583 -0.6526
vn -0.4615 -0.3572 -0.8121
vn 0.0017 -0.9998 0.0189
vn -0.1682 -0.9431 0.2869
vn -0.3184 -0.9480 -0.0035
vn -0.1522 -0.9518 -0.2663
vn 0.4913 0.2396 -0.8374
vn 0.9770 0.2132 0.0038
vn 0.9978 0.0657 -0.0108
vn 0.0000 0.1132 -0.9936
vn -0.6455 0.2860 -0.7082
vn -0.8600 0.1177 -0.4965
vn -0.9932 0.1161 -0.0105
vn -0.9803 0.1689 -0.1028
vn -0.8630 0.0831 0.4983
vn 0.0000 0.0437 0.9990
vn 0.4929 0.1957 0.8478
vn -0.4103 0.3122 0.8568
vn 0.5729 0.0472 0.8183
vn 0.4617 0.3874 -0.7979
vn 0.9265 0.3761 0.0072
vn -0.3186 0.3778 -0.8694
vn -0.7518 0.6594 0.0063
vn -0.3883 0.8421 -0.3743
vn -0.9109 0.3479 0.2219
vn -0.3751 0.6583 0.6526
vn 0.4615 0.3572 0.8121
vn 0.1682 0.9431 -0.2869
vn -0.0017 0.9998 -0.0189
vn 0.3184 0.9480 0.0035
vn 0.1522 0.9518 0.2663
vn 0.0000 -0.0437 -0.9990
usemtl Saucer
s 1
f 1/1/1 2/2/2 3/3/3
f 4/4/4 1/1/1 3/3/3
f 4/4/4 3/3/3 5/5/5
f 6/6/6 4/4/4 5/5/5
f 6/6/6 5/5/5 7/7/7
f 8/8/8 6/6/6 7/7/7
f 8/8/8 7/7/7 9/9/9
f 9/9/9 7/7/7 10/10/10
f 3/11/3 11/12/11 5/13/5
f 12/14/12 11/12/11 3/11/3
f 2/15/2 12/16/12 3/17/3
f 13/18/13 12/16/12 2/15/2
f 1/19/1 14/20/14 2/21/2
f 14/20/14 13/22/13 2/21/2
f 15/23/15 1/24/1 4/25/4
f 15/23/15 14/26/14 1/24/1
f 16/27/16 4/28/4 6/29/6
f 16/27/16 15/30/15 4/28/4
f 17/31/17 6/32/6 8/33/8
f 17/31/17 16/34/16 6/32/6
f 18/35/18 8/36/8 9/37/9
f 18/35/18 17/38/17 8/36/8
f 19/39/19 9/40/9 10/41/10
f 19/39/19 18/42/18 9/40/9
f 7/43/7 19/44/19 10/45/10
f 20/46/20 19/44/19 7/43/7
f 5/47/5 20/48/20 7/49/7
f 11/50/11 20/48/20 5/47/5
f 19/51/19 20/52/20 18/53/18
f 20/52/20 17/54/17 18/53/18
f 20/52/20 11/55/11 17/54/17
f 11/55/11 16/56/16 17/54/17
f 11/55/11 12/57/12 16/56/16
f 12/57/12 15/58/15 16/56/16
f 12/57/12 14/59/14 15/58/15
f 13/60/13 14/59/14 12/57/12
f 21/61/21 22/62/22 23/63/23
f 24/64/24 21/61/21 25/65/25
f 26/66/26 21/61/21 24/64/24
f 26/66/26 24/64/24 27/67/27
f 28/68/28 26/66/26 27/67/27
f 29/69/29 27/67/27 30/70/30
f 29/69/29 28/68/28 27/67/27
f 31/71/31 23/63/23 30/70/30
f 23/63/23 29/69/29 30/70/30
f 25/65/25 23/63/23 31/71/31
f 21/61/21 23/63/23 25/65/25
f 26/66/26 22/62/22 21/61/21
f 22/62/22 26/66/26 28/68/28
f 22/62/22 28/68/28 29/69/29
f 23/63/23 22/62/22 29/69/29
f 32/72/32 33/73/32 34/74/32
f 32/72/33 35/75/33 34/74/33
f 36/76/33 37/77/33 38/78/33
f 35/75/32 37/77/32 38/78/32
f 39/79/34 40/80/34 41/81/34
f 42/82/35 43/83/36 44/84/37
f 43/85/36 45/86/38 44/87/37
f 45/88/38 43/89/36 46/90/39
f 43/89/36 47/91/40 46/90/39
f 46/92/41 47/93/40 48/94/42
f 47/93/40 49/95/43 48/94/42
f 48/96/42 50/97/44 51/98/44
f 49/99/43 50/100/44 48/101/42
f 50/102/45 52/103/46 53/104/47
f 52/105/46 44/106/37 53/107/47
f 52/105/46 42/108/35 44/106/37
f 54/109/48 55/110/49 42/111/35
f 55/110/49 43/112/36 42/111/35
f 43/112/36 56/113/50 47/114/40
f 55/110/49 56/113/50 43/112/36
f 47/114/40 56/113/50 49/115/43
f 56/113/51 57/116/52 49/115/53
f 49/115/53 58/117/54 50/118/45
f 57/116/52 58/117/54 49/115/53
f 59/119/55 52/120/46 50/118/45
f 58/117/54 59/119/55 50/118/45
f 59/119/55 42/111/35 52/120/46
f 59/119/55 54/109/48 42/111/35
f 60/121/56 55/110/57 54/109/58
f 55/110/57 60/121/56 56/113/51
f 56/113/51 60/121/56 57/116/52
f 57/116/52 60/121/56 58/117/54
f 60/121/56 59/119/59 58/117/54
f 60/121/56 54/109/58 59/119/59
f 61/122/60 62/123/61 63/124/62
f 45/125/38 61/126/60 63/127/62
f 61/128/60 45/88/38 46/90/39
f 47/91/63 61/128/60 46/90/39
f 64/129/64 65/130/65 66/131/66
f 49/95/67 64/129/64 66/131/66
f 50/100/68 66/132/66 51/133/68
f 50/97/68 49/134/67 66/135/66
f 53/104/69 50/102/69 51/136/69
f 67/137/70 68/138/71 69/139/72
f 63/140/62 67/141/70 69/142/72
f 62/143/61 67/141/70 63/140/62
f 55/110/73 54/109/74 62/144/61
f 61/145/60 55/110/73 62/144/61
f 56/113/75 61/145/60 64/146/64
f 56/113/75 55/110/73 61/145/60
f 56/113/75 64/146/64 49/115/67
f 70/147/76 71/148/77 72/149/78
f 58/117/79 72/149/78 68/150/71
f 58/117/79 70/147/76 72/149/78
f 67/151/70 59/119/80 68/150/71
f 59/119/80 58/117/79 68/150/71
f 62/144/61 59/119/80 67/151/70
f 54/109/74 59/119/80 62/144/61
f 73/152/81 74/153/82 75/154/83
f 74/153/82 73/152/81 71/148/77
f 74/153/82 71/148/77 70/147/76
f 74/153/82 70/147/76 58/117/79
f 59/119/84 74/153/82 58/117/79
f 75/154/83 74/153/82 59/119/84
f 68/138/85 69/139/85 51/136/85
